<?xml version="1.0" encoding="UTF-8" standalone="no"?>
<!DOCTYPE svg PUBLIC "-//W3C//DTD SVG 20010904//EN"
              "http://www.w3.org/TR/2001/REC-SVG-20010904/DTD/svg10.dtd">

<svg xmlns="http://www.w3.org/2000/svg"
     width="3.22222in" height="3.88889in"
     viewBox="0 0 290 350">
  <path id="Selección"
        fill="#16d0c5" stroke="none" stroke-width="0"
        d="M 154.00,232.00
           C 163.48,231.97 173.03,230.02 182.00,227.00
             238.02,208.09 261.90,148.51 245.02,94.00
             240.30,78.75 232.28,63.83 220.00,53.30
             199.91,36.08 159.18,26.53 140.76,51.00
             137.29,55.62 134.78,60.51 133.03,66.00
             130.83,72.91 130.01,76.76 130.00,84.00
             130.00,84.00 130.00,133.00 130.00,133.00
             130.00,133.00 130.00,193.00 130.00,193.00
             130.00,193.00 130.96,205.00 130.96,205.00
             130.96,205.00 130.96,220.00 130.96,220.00
             125.19,218.68 121.25,217.00 116.00,214.22
             80.68,195.50 76.59,151.60 77.00,116.00
             77.07,110.72 78.35,101.27 79.40,96.00
             83.72,74.40 95.62,48.82 120.00,45.00
             120.00,45.00 120.00,37.00 120.00,37.00
             109.82,37.03 99.56,39.11 90.00,42.59
             29.97,64.41 23.76,143.49 55.75,191.00
             73.46,217.30 99.55,231.00 131.00,231.00
             131.00,231.00 131.00,315.00 131.00,315.00
             131.00,315.00 154.00,315.00 154.00,315.00
             154.00,315.00 154.00,232.00 154.00,232.00 Z
           M 155.00,219.00
           C 155.00,219.00 154.00,202.00 154.00,202.00
             154.00,202.00 154.00,153.00 154.00,153.00
             154.00,153.00 154.00,81.00 154.00,81.00
             154.02,77.63 153.98,75.26 155.11,72.00
             160.30,56.99 176.26,56.36 188.00,64.11
             191.88,66.67 194.16,69.38 196.98,73.00
             216.79,98.34 221.42,145.15 210.56,175.00
             201.77,199.19 181.50,217.78 155.00,219.00 Z" />
</svg>
